<?xml version="1.0" encoding="UTF-8" standalone="no"?>
<!-- Created with Inkscape (http://www.inkscape.org/) -->

<svg
   version="1.1"
   id="svg345"
   width="445.78104"
   height="284.55511"
   viewBox="0 0 445.78104 284.55511"
   sodipodi:docname="coHousingLogo.svg"
   inkscape:version="1.1.2 (b8e25be8, 2022-02-05)"
   xmlns:inkscape="http://www.inkscape.org/namespaces/inkscape"
   xmlns:sodipodi="http://sodipodi.sourceforge.net/DTD/sodipodi-0.dtd"
   xmlns="http://www.w3.org/2000/svg"
   xmlns:svg="http://www.w3.org/2000/svg">
  <sodipodi:namedview
     id="namedview29"
     pagecolor="#ffffff"
     bordercolor="#666666"
     borderopacity="1.0"
     inkscape:pageshadow="2"
     inkscape:pageopacity="0.0"
     inkscape:pagecheckerboard="0"
     showgrid="false"
     inkscape:zoom="1.609087"
     inkscape:cx="228.39038"
     inkscape:cy="176.18686"
     inkscape:window-width="1296"
     inkscape:window-height="969"
     inkscape:window-x="0"
     inkscape:window-y="25"
     inkscape:window-maximized="0"
     inkscape:current-layer="svg345"
     showborder="false" />
  <defs
     id="defs349">
    <clipPath
       clipPathUnits="userSpaceOnUse"
       id="clipPath5841">
      <path
         style="fill:none;stroke:#000000;stroke-width:1px;stroke-linecap:butt;stroke-linejoin:miter;stroke-opacity:1"
         d="m -524.18333,1276.0229 -204.6993,-168.3508 -86.08853,-114.7847 17.2177,558.6187 713.578035,-3.8261 -32.522325,-535.6618 -137.74158,95.6539 z"
         id="path5843" />
    </clipPath>
    <clipPath
       clipPathUnits="userSpaceOnUse"
       id="clipPath7828">
      <path
         style="fill:none;stroke:#000000;stroke-width:1.35429px;stroke-linecap:butt;stroke-linejoin:miter;stroke-opacity:1"
         d="M -728.06756,1107.672 -491.661,917.08831 -254.43933,1107.672 h -473.62823"
         id="path7830" />
    </clipPath>
  </defs>
  <g
     id="g351"
     transform="translate(-76.975053,-488.65747)">
    <g
       id="g7929"
       transform="translate(199.51707,-74.58582)">
      <path
         id="path479"
         style="fill:#333333"
         d="m 161.10231,806.50936 -4.39844,1.23242 -4.40039,1.23243 -3.34571,3.46679 -3.3457,3.4668 1.94141,1.42969 1.93945,1.42968 h 1.90234 1.90039 l 2.54297,-2 2.54297,-2 h 3.79297 3.79492 l 1.57032,1.57227 1.57226,1.57031 v 2.78125 2.7793 l -8.26367,0.58398 -8.26172,0.58203 -2.68945,1.02344 -2.68946,1.02149 -1.54882,2.99414 -1.54688,2.99218 0.004,2.80079 0.004,2.79882 2.01563,3.30664 2.01562,3.30664 3.23047,1.45899 3.23047,1.45898 4.23633,-0.39062 4.23437,-0.39063 2.6543,-1.875 2.65625,-1.875 1.28711,-0.94922 1.28711,-0.94921 1.9043,2.34961 1.90429,2.35156 4.41797,0.0996 4.41797,0.0976 0.32227,-2.81836 0.32226,-2.8164 -2.41406,-2.23828 -2.41406,-2.23828 -0.56446,-9.44336 -0.56445,-9.44532 -1.26562,-2.77343 -1.26563,-2.77539 -3.125,-1.93164 -3.125,-1.92969 -4.20703,-0.67383 z m -1.05469,23.25781 h 2.95117 2.94922 l 1.58203,0.60743 1.58203,0.60742 v 1.9375 1.93945 l -2.45508,2.45313 -2.45312,2.45507 h -3.89063 -3.89062 l -1.65625,-1.82812 -1.6543,-1.82813 v -1.72265 -1.72266 l 3.46875,-1.44922 z" />
      <path
         id="path375"
         style="fill:#333333"
         d="m 64.004648,806.66171 -4.47266,0.66992 -4.47265,0.66992 -3.22461,2.17187 -3.22266,2.17188 -2.41601,4.37695 -2.41797,4.37696 v 5.67382 5.67383 l 2.23828,4.62305 2.23828,4.62304 3.44336,2.12696 3.44141,2.1289 2.73632,0.82227 2.73633,0.82422 2,0.0801 2,0.0801 3.84375,-1.0664 3.8457,-1.06836 3.6543,-3.43555 3.65625,-3.4375 -2.36133,-1.99023 -2.35937,-1.99024 h -1.89063 -1.88867 v 1.05078 1.05079 l -3.60351,1.50586 -3.60352,1.50585 -2.75586,-0.60546 -2.75586,-0.60547 -2.77148,-2.89063 -2.76953,-2.89258 0.59765,-1.55859 0.59961,-1.56055 h 13.53125 13.53125 v -3.13281 -3.13476 l -1.16211,-3.88086 -1.16211,-3.87891 -3.35351,-3.45117 -3.35157,-3.45117 -4.03906,-1.08789 z m -0.75977,7.91796 2.88477,1.19532 2.88477,1.19531 1.49609,2.2832 1.49805,2.28516 -0.61524,0.61328 -0.61523,0.61523 h -8.83203 -8.83399 v -0.86523 -0.86523 l 2.01172,-2.55665 2.01367,-2.55859 3.05274,-0.67187 z" />
      <path
         id="path487"
         style="fill:#333333"
         d="m -9.020742,791.56795 0.31641,3.84961 0.3164,3.84961 3.25,0.31446 3.25,0.3125 v 18.87304 18.87305 l -3.25,0.31445 -3.25,0.3125 -0.31445,4.37891 h 0.002 l -0.31445,4.38086 16.81445,-0.45508 16.8125,-0.45312 3.00391,-1.57227 3.00195,-1.57422 1.78906,-1.97851 1.79102,-1.97852 0.58008,-3.56836 0.57812,-3.56836 -0.66015,-3.51562 -0.66016,-3.51758 -3.03906,-3.03906 -3.03907,-3.03907 3.57813,-4.17968 3.57617,-4.17969 -0.004,-4.07031 -0.004,-4.07032 -1.94727,-3.19531 -1.94921,-3.19531 -2.75196,-1.80469 -2.75195,-1.80469 -17.36328,-0.34961 z m 17.13281,8.97461 7.10938,0.40039 7.10937,0.40235 1.39063,1.90234 1.39062,1.90235 v 2.65429 2.65235 l -2.05664,1.86132 -2.05664,1.86133 -6.44336,0.41016 -6.44336,0.41016 v -7.22852 z m 0,22.22461 3.75,0.006 3.75,0.006 3.75977,1.04297 3.75976,1.04492 1.65625,2.52735 1.65625,2.52734 -0.93359,2.65234 -0.93164,2.6504 -2.48242,1.25781 -2.48438,1.25586 -5.75,0.0156 -5.75,0.0137 v -7.5 z" />
      <path
         id="path499"
         style="fill:#333333"
         d="m 300.79371,711.60506 -3.58984,0.66407 -3.5918,0.66601 -3.27344,2.01367 -3.27539,2.01172 -1.50195,2.9043 -1.50195,2.9043 -0.96485,5.08984 -0.96484,5.0918 1.0957,4.34961 1.09571,4.34961 3.38476,3.95703 3.38672,3.95703 4.89062,1.17187 4.88868,1.17383 3.96093,-1.0664 3.96094,-1.06836 1.79297,-1.98047 1.79297,-1.98047 0.86523,0.53516 0.86719,0.5371 v 4.88282 4.88476 l -2.22265,1.55664 -2.22266,1.55664 h -10.27734 -10.27735 v 4.11133 4.11133 l 14.48633,-0.375 14.48437,-0.375 2.26563,-2.26172 2.26367,-2.26172 0.31445,-25.03515 0.3125,-25.03516 -4.3125,0.31055 -4.31445,0.31054 -0.32031,2.25 -0.31836,2.25 h -0.77539 -0.77539 l -1.81446,-2.0039 -1.81445,-2.00391 -4,-1.07812 z m -1.88086,8.16211 h 3.56446 3.56445 l 3.5039,3.07618 3.50391,3.07617 0.6543,3.48828 0.65429,3.48633 -1.80273,3.99804 -1.80273,3.9961 -1.75391,0.93945 -1.75586,0.93945 h -4.50977 -4.50976 l -2.70898,-2.33007 -2.70899,-2.33008 -0.46875,-5.64844 -0.46875,-5.64648 3.52149,-3.52344 z" />
      <path
         id="path505"
         style="fill:#333333"
         d="m -3.190662,711.53671 -4.56641,0.62695 -4.56445,0.625 -3.62696,2.40039 -3.62695,2.40039 -1.82422,3.83789 -1.82422,3.83984 -0.43554,4.50782 -0.43555,4.50781 1.14453,4.25586 1.14649,4.25586 3.00195,3.41797 3,3.41601 4.20703,1.54102 4.20703,1.53906 4.89453,-0.52539 4.89649,-0.52344 3.60351,-1.83984 3.60547,-1.83985 1.8457,-2.03906 1.84375,-2.04101 1.36133,-3.81641 1.36133,-3.81641 0.0391,-3.5 0.0371,-3.5 -1.04883,-3.77734 -1.04883,-3.77734 -3.05078,-3.47461 -3.05273,-3.47657 -5.54492,-1.61132 z m 0.37304,7.89257 3.35547003,1.60157 3.35741997,1.60156 1.78711,4.68164 1.78907,4.68359 -1.42969,4.04297 -1.42969,4.04492 -2.5,1.75977 -2.49999997,1.75781 -2.00000003,0.52149 -2,0.52148 -3.67187,-1.51563 -3.67188,-1.51562 -1.57812,-3.32422 -1.57813,-3.32617 0.004,-3.34766 0.004,-3.34961 1.94727,-3.19531 1.94922,-3.19531 4.08203,-1.22266 z" />
      <path
         id="path513"
         style="fill:#333333"
         d="m 91.912848,711.51131 -4.15039,1.22461 -4.15039,1.22657 -3.36914,2.54492 -3.36914,2.54297 -2.00195,4.52929 -2.00391,4.5293 0.55469,5.37695 0.55469,5.375 2.60742,4.45118 2.60742,4.44921 3.71094,1.95899 3.70898,1.95898 6.28906,0.0449 6.29102,0.043 3.708982,-1.90234 3.71094,-1.90234 2.18359,-2.34766 2.1836,-2.34766 1.0664,-2.81445 1.06641,-2.81641 v -5.72265 -5.72266 l -2.25,-4.45703 -2.25,-4.45898 -4,-2.22266 -4,-2.22461 -4.349612,-0.6582 z m 3.14453,8.17579 3.00977,1.55664 3.011722,1.55664 1.51562,2.93359 1.51758,2.93359 v 3.61524 3.61523 l -1.11719,2.18555 -1.11718,2.18359 -2.132822,1.72852 -2.13281,1.72656 -4.32617,0.0234 -4.32813,0.0215 -2.92187,-2.92187 -2.92383,-2.92383 v -5.5 -5.5 l 2.49414,-2.96484 2.49414,-2.96485 3.47852,-0.65234 z" />
      <path
         style="fill:#333333"
         d="m 215.74702,705.69487 -2.63486,-2.07258 v -2.40437 -2.40436 l 2.5775,-1.68884 2.57749,-1.68885 2.65469,0.93361 2.65469,0.9336 0.99746,2.83628 0.99747,2.83627 -2.78542,2.39591 -2.78541,2.39591 h -0.80938 -0.80937 z"
         id="path523" />
      <path
         style="fill:#333333"
         d="m 235.11216,732.20995 v -19.5575 l 4.25,0.3075 4.25,0.3075 0.31955,2.25 0.31955,2.25 h 0.38604 0.38604 l 3.68396,-2.5 3.68395,-2.5 4.61046,0.002 4.61045,0.002 3.5,1.74845 3.5,1.74844 1.762,3.60273 1.76199,3.60272 0.64356,14.14727 0.64355,14.14728 h -5.15555 -5.15555 v -12.45295 -12.45294 l -1.11046,-2.43719 -1.11045,-2.43719 -2.37674,-1.27199 -2.37673,-1.27199 -4.00699,1.20052 -4.00698,1.20052 -1.68836,3.21161 -1.68836,3.2116 -0.44072,11.75 -0.44072,11.75 h -4.37674 -4.37675 v -19.5575 z"
         id="path521" />
      <path
         style="fill:#333333"
         d="m 214.11216,732.26745 v -19.5 h 4.5 4.5 v 19.5 19.5 h -4.5 -4.5 z"
         id="path519" />
      <path
         style="fill:#333333"
         d="m 131.14705,749.92582 -3.43391,-1.84162 -1.89435,-3.65032 -1.89434,-3.65031 -0.55454,-14.00806 -0.55454,-14.00806 h 5.1484 5.14839 v 12.86514 12.86514 l 2.07258,2.63486 2.07258,2.63486 h 3.87166 3.87165 l 2.80577,-2.4128 2.80576,-2.41281 0.35042,-13.08719 0.35043,-13.0872 h 4.89957 4.89958 v 19.5575 19.5575 l -4.25,-0.3075 -4.25,-0.3075 -0.31955,-2.25 -0.31955,-2.25 h -0.88604 -0.88604 l -3.68396,2.5 -3.68395,2.5 h -4.12606 -4.12605 z"
         id="path517" />
      <path
         style="fill:#333333"
         d="m 26.112158,724.26745 v -27.5 h 4.5 4.5 v 8.91821 8.91821 l 0.57571,1.50028 0.57571,1.50027 3.67429,-2.50952 3.67429,-2.50953 5.76344,0.40582 5.76344,0.40582 2.73656,2.03073 2.73656,2.03073 1.32612,3.90449 1.32612,3.90449 0.57366,13.25 0.57366,13.25 h -5.14978 -5.14978 V 739.3145 726.86156 l -1.11046,-2.43719 -1.11045,-2.43719 -2.37674,-1.27199 -2.37673,-1.27199 -4.00699,1.20052 -4.00698,1.20052 -1.68836,3.21161 -1.68836,3.2116 -0.44072,11.75 -0.44072,11.75 h -4.37674 -4.37675 z"
         id="path511" />
      <path
         style="fill:#333333"
         d="m 182.59124,751.83798 -3.02092,-0.72423 -2.78019,-1.82165 -2.78019,-1.82165 -1.44889,-2.80184 -1.44889,-2.80184 v -0.93837 -0.93837 l 3.54804,-0.66561 3.54804,-0.66562 2.85317,3.05432 2.85317,3.05433 h 4.47635 4.47634 l 1.20502,-1.45196 1.20502,-1.45196 -0.33858,-1.79804 -0.33858,-1.79804 -8.49399,-3 -8.494,-3 -1.60402,-1 -1.60401,-1 -1.14599,-2.18426 -1.14598,-2.18426 v -2.51869 -2.51868 l 1.13856,-2.49887 1.13855,-2.49886 3.11145,-1.46536 3.11144,-1.46537 3.59077,-0.66424 3.59077,-0.66425 4.1984,1.13051 4.19839,1.13051 3.12778,2.79467 3.12778,2.79467 -0.58618,1.52756 -0.58618,1.52756 -2.52785,0.63445 -2.52785,0.63445 -3.69246,-2.50577 -3.69246,-2.50577 h -1.9262 -1.92619 l -1.93426,1.03518 -1.93426,1.03519 v 1.98099 1.981 l 3.25,1.43852 3.25,1.43852 5.85347,1.60332 5.85347,1.60331 2.39653,2.39653 2.39653,2.39653 v 3.59512 3.59511 l -1.51693,2.93341 -1.51692,2.93342 -2.73308,1.38093 -2.73307,1.38094 -5,0.53337 -5,0.53336 z"
         id="path509" />
      <path
         style="fill:#333333"
         d="m -61.316832,751.27986 -3.92899,-1.3998 -3.96582,-3.96581 -3.96581,-3.96582 -0.79559,-4.84049 -0.79558,-4.84049 -0.054,-9 -0.054,-9 1.10791,-4 1.10791,-4 1.97072,-2.77264 1.97073,-2.77264 4.04339,-2.06278 4.04339,-2.06279 5.1224,-0.52468 5.12239,-0.52468 4.20454,1.13641 4.20453,1.1364 3.08138,2.59282 3.08139,2.59281 1.37835,2.66544 1.37835,2.66544 0.70824,3.77524 0.70824,3.77524 -4.81387,-0.3098 -4.81387,-0.30979 -0.8471,-3.28809 -0.84711,-3.28809 -3.21154,-1.95817 -3.21153,-1.95817 -4.5275,-0.004 -4.52749,-0.004 -2.18364,1.52948 -2.18365,1.52949 -1.03328,3.72051 -1.03329,3.72052 -0.006,9.28212 -0.006,9.28212 1.42122,3.40146 1.42122,3.40146 3.02912,1.56642 3.02912,1.56642 h 3.53388 3.53389 l 3.09389,-2.76439 3.09388,-2.76439 0.70773,-3.48561 0.70772,-3.48561 4.22332,-0.30794 4.22331,-0.30795 0.61112,1.59256 0.61112,1.59255 -1.2878,4.59959 -1.28781,4.59959 -3.32477,3.32478 -3.32478,3.32477 -5.18919,1.54103 -5.18915,1.54102 -3.0685,-0.0439 -3.06849,-0.0439 z"
         id="path503" />
      <path
         style="fill:#333333"
         d="m 244.13187,845.483 -2.48029,-1.25497 -1.25497,-2.48029 -1.25497,-2.48029 -0.0147,-11.75 -0.0147,-11.75 h -5 -5 v -4 -4 h 5 5 v -6 -6 h 4.5 4.5 v 6 6 h 5.5 5.5 v 4 4 h -5.53275 -5.53275 l 0.28275,11.25 0.28275,11.25 4.75,0.30479 4.75,0.30479 v 3.94521 3.94521 l -5.75,-0.0147 -5.75,-0.0147 -2.48029,-1.25497 z"
         id="path497" />
      <path
         style="fill:#333333"
         d="m 119.11216,831.26745 v -15.5 h -5 -5 v -4 -4 h 5 5 v -5.38922 -5.38921 l 1.87967,-2.3213 1.87967,-2.32129 7.19241,-0.40641 7.19241,-0.40641 -0.32208,3.36692 -0.32208,3.36692 -3,0.33849 -3,0.33848 -1.25,1.03396 -1.25,1.03396 v 3.37755 3.37756 h 5 5 v 4 4 h -5 -5 v 15.5 15.5 h -4.5 -4.5 z"
         id="path495" />
      <path
         style="fill:#333333"
         d="m 91.112158,819.26745 v -27.5 h 4.5 4.500002 v 27.5 27.5 h -4.500002 -4.5 z"
         id="path493" />
      <path
         style="fill:#333333"
         d="m 199.61216,846.26544 -4,-1.41423 -2.80782,-3.12237 -2.80783,-3.12237 0.31469,-1.63405 0.31469,-1.63405 3.21447,-0.9219 3.21447,-0.9219 2.92988,3.13644 2.92987,3.13644 h 4.4438 4.4438 l 1.77627,-1.96275 1.77627,-1.96276 -0.55943,-1.45787 -0.55944,-1.45786 -8.71878,-2.65939 -8.71878,-2.6594 -2.96826,-2.96825 -2.96826,-2.96826 0.54322,-4.05002 0.54322,-4.05003 2.18604,-2.32693 2.18604,-2.32693 4.85179,-1.16393 4.85179,-1.16392 3.29415,0.70959 3.29414,0.70959 2.721,1.39024 2.72099,1.39024 2.02901,2.17788 2.029,2.17788 v 0.73389 0.73389 l -3.45889,1.14153 -3.45889,1.14154 -3.77325,-2.56398 -3.77324,-2.56399 h -1.83361 -1.8336 l -1.93426,1.03518 -1.93426,1.03519 v 1.84237 1.84237 l 1.25,1.03304 1.25,1.03305 6.5,1.67319 6.5,1.67319 3.18639,1.95846 3.18639,1.95845 1.11286,3.372 1.11286,3.372 -1.41123,3.33576 -1.41124,3.33575 -1.90279,1.69211 -1.90279,1.69211 -4.48522,1.03344 -4.48523,1.03345 -2.5,-0.0195 -2.5,-0.0195 -4,-1.41422 z"
         id="path483" />
    </g>
  </g>
  <path
     style="fill:none;stroke:#aa4400;stroke-width:10.1869;stroke-linecap:butt;stroke-linejoin:miter;stroke-miterlimit:4;stroke-dasharray:none;stroke-opacity:1"
     d="M 5.0934501,274.1098 V 110.28114 L 266.4916,5.6676591 381.65303,74.752039"
     id="path8284" />
</svg>
