

<svg width="1196.9" height="305.3" viewBox="0 0 1196.9 305.3" xmlns="http://www.w3.org/2000/svg">
  <path opacity=".3" fill="#CAF9F8" d="M 1212.589 229.377 C 1212.589 157.656 1150.126 99.466 1073.115 99.466 C 1060.398 99.466 1048.088 101.195 1036.389 104.145 C 1013.601 64.877 969.043 38.121 917.77 38.121 C 874.127 38.121 835.469 57.45 810.951 87.36 C 809.018 86.546 806.984 85.834 804.949 85.223 C 791.419 34.764 745.436 -2.47 690.704 -2.47 C 645.637 -2.47 606.47 22.76 586.429 59.79 C 576.154 56.942 565.37 55.314 554.18 55.314 C 515.929 55.314 481.848 72.812 459.366 100.28 C 447.056 94.786 433.526 91.836 419.182 91.836 C 381.439 91.836 348.681 112.894 331.997 143.923 C 323.35 141.583 314.398 140.158 305.038 140.158 C 276.452 140.158 250.713 151.858 232.096 170.678 C 227.824 168.542 223.348 166.71 218.77 165.185 C 207.477 122.966 169.023 91.836 123.243 91.836 C 85.501 91.836 52.743 112.894 36.059 143.923 C 27.412 141.583 18.459 140.158 9.1 140.158 L 9.303 287.67 L 664.05 287.67 L 664.356 286.449 L 1198.245 286.449 C 1207.299 269.256 1212.589 249.927 1212.589 229.377 Z" style=""></path>

  <path fill="#FFBD66" d="M864.1 204.8h-10.3l-2-17.2h14.3z"></path>
  <g fill="#83D6C1" stroke="#0D1D48" stroke-width="1.5" stroke-miterlimit="10">
    <path fill="none" d="M622.7 294.3l-21.1 10.2M638.1 294.3L617 304.5M653.5 294.3l-21.1 10.2M668.9 294.3l-21.1 10.2M684.3 294.3l-21.1 10.2M699.7 294.3l-21.1 10.2M715.1 294.3L694 304.5M730.5 294.3l-21 10.2M745.9 294.3l-21 10.2M761.3 294.3l-21 10.2M776.7 294.3l-21 10.2M792.1 294.3l-21 10.2M807.5 294.3l-21 10.2M823 294.3l-21.1 10.2M838.4 294.3l-21.1 10.2M853.8 294.3l-21.1 10.2M869.2 294.3l-21.1 10.2M884.6 294.3l-21.1 10.2M900 294.3l-21.1 10.2M915.4 294.3l-21.1 10.2M930.8 294.3l-21 10.2M946.2 294.3l-21 10.2M961.6 294.3l-21 10.2M977 294.3l-21 10.2M992.4 294.3l-21 10.2M1007.8 294.3l-21 10.2M21.8 294.3L.7 304.5M268.2 294.3l-21.1 10.2M283.6 294.3l-21.1 10.2M299 294.3l-21 10.2M314.4 294.3l-21 10.2M329.8 294.3l-21 10.2M345.2 294.3l-21 10.2M360.6 294.3l-21 10.2M376 294.3l-21 10.2M391.5 294.3l-21.1 10.2M406.9 294.3l-21.1 10.2M422.3 294.3l-21.1 10.2M437.7 294.3l-21.1 10.2M453.1 294.3L432 304.5M468.5 294.3l-21.1 10.2M237.4 294.3l-21.1 10.2M252.8 294.3l-21.1 10.2M37.2 294.3l-21 10.2M52.6 294.3l-21 10.2M68 294.3l-21 10.2M83.4 294.3l-21 10.2M98.8 294.3l-21 10.2M114.2 294.3l-21 10.2M129.7 294.3l-21.1 10.2M145.1 294.3L124 304.5M160.5 294.3l-21.1 10.2M175.9 294.3l-21.1 10.2M191.3 294.3l-21.1 10.2M206.7 294.3l-21.1 10.2M222.1 294.3L201 304.5M483.9 294.3l-21.1 10.2M499.3 294.3l-21 10.2M514.7 294.3l-21 10.2M530.1 294.3l-21 10.2M545.5 294.3l-21 10.2M560.9 294.3l-21 10.2M576.3 294.3l-21 10.2M591.8 294.3l-21.1 10.2M607.2 294.3l-21.1 10.2M1023.2 294.3l-21 10.2M1038.7 294.3l-21.1 10.2M1054.1 294.3l-21.1 10.2M1069.5 294.3l-21.1 10.2M1084.9 294.3l-21.1 10.2M1100.3 294.3l-21.1 10.2M1115.7 294.3l-21.1 10.2M1131.1 294.3l-21.1 10.2M1146.5 294.3l-21 10.2M1161.9 294.3l-21 10.2M1177.3 294.3l-21 10.2M1192.7 294.3l-21 10.2"></path>
    <path fill="#FFF" d="M976.7 293.9h-68.1V166.2l68.1 38.9z"></path>
    <path d="M938.3 290.4c0-7.4-6-13.4-13.4-13.4-2.2 0-4.2.5-6 1.4-2.4-5-6.8-8.8-12.1-10.5-2.4-8.8-10.4-15.3-19.9-15.3-7.9 0-14.7 4.4-18.2 10.9-1.8-.5-3.7-.8-5.6-.8-11.8 0-21.3 9.6-21.3 21.3 0 3.4.8 6.6 2.2 9.4h94c.2-.9.3-1.9.3-3z"></path>
    <path d="M750.4 291.9c0-7.8-6.3-14.2-14.2-14.2-1 0-2 .1-3 .3-1.7-5.9-7.1-10.2-13.6-10.2-4.7 0-8.9 2.3-11.5 5.9-1-.2-1.9-.2-2.9-.2-10.1 0-18.3 8.2-18.3 18.3 0 .8.1 1.5.1 2.3h63.1c.2-.7.3-1.4.3-2.2zM750.2 294.1h-63"></path>
    <path d="M1127.5 291.9c0-7.8-6.3-14.2-14.2-14.2-1 0-2 .1-3 .3-1.7-5.9-7.1-10.2-13.6-10.2-4.7 0-8.9 2.3-11.5 5.9-1-.2-1.9-.2-2.9-.2-10.1 0-18.3 8.2-18.3 18.3 0 .8.1 1.5.1 2.3h63.1c.3-.7.3-1.4.3-2.2zM1127.4 294.1h-63.1"></path>
    <path d="M1193.8 291.9c0-7.8-6.3-14.2-14.2-14.2-1 0-2 .1-3 .3-1.7-5.9-7.1-10.2-13.6-10.2-4.7 0-8.9 2.3-11.5 5.9-1-.2-1.9-.2-2.9-.2-10.1 0-18.3 8.2-18.3 18.3 0 .8.1 1.5.1 2.3h63.1c.3-.7.3-1.4.3-2.2zM1193.7 294.1h-63.1"></path>
    <path d="M856.7 292.4c0-4.8-3.9-8.7-8.7-8.7-1.4 0-2.7.3-3.9.9-1.6-3.2-4.4-5.7-7.8-6.9-1.5-5.7-6.7-9.9-12.9-9.9-5.1 0-9.5 2.9-11.8 7.1-1.2-.3-2.4-.5-3.7-.5-7.7 0-13.9 6.2-13.9 13.9 0 2.2.5 4.3 1.4 6.1h61c.2-.7.3-1.3.3-2z"></path>
    <path d="M900.894 158.316l86.386 49.362-1.984 3.473-86.386-49.362z"></path>
    <path fill="#fff" d="M900.899 153.818l86.386 49.362-1.985 3.473-86.386-49.362z"></path>
    <path d="M900.903 149.32l86.386 49.361-1.984 3.473-86.386-49.362z"></path>
    <path fill="#0D1D48" d="M949.4 259h16.3v34.9h-16.3z"></path>
    <path fill="#FFA259" d="M919.5 258.5h16.3v18.4h-16.3zM919.5 227.7h16.3v18.4h-16.3zM919.5 197h16.3v18.4h-16.3zM953.9 210.9h7.3v39.6h-7.3zM1071.1 293.9H1003V166.2l68.1 38.9z"></path>
    <path d="M995.285 158.333l86.386 49.362-1.984 3.472-86.386-49.361z"></path>
    <path fill="#FFF" d="M995.29 153.834l86.385 49.362-1.984 3.473-86.386-49.362z"></path>
    <path d="M995.294 149.336l86.386 49.361-1.985 3.473-86.385-49.362z"></path>
    <path fill="#0D1D48" d="M1043.8 259h16.3v34.9h-16.3z"></path>
    <path fill="#FFF" d="M1013.8 258.5h16.3v18.4h-16.3zM1013.8 227.7h16.3v18.4h-16.3zM1013.8 197h16.3v18.4h-16.3zM1048.3 210.9h7.3v39.6h-7.3z"></path>
    <path fill="#FFA259" d="M801.2 293.9h-68.1V166.2l68.1 38.9z"></path>
    <path d="M725.306 158.31l86.385 49.361-1.984 3.473-86.386-49.362z"></path>
    <path fill="#FFF" d="M725.31 153.81l86.386 49.363-1.984 3.472-86.386-49.362z"></path>
    <path d="M725.314 149.312l86.386 49.362-1.984 3.473-86.386-49.362z"></path>
    <path fill="#0D1D48" d="M773.8 259h16.3v34.9h-16.3z"></path>
    <path fill="#FFF" d="M743.9 258.5h16.3v18.4h-16.3zM743.9 227.7h16.3v18.4h-16.3zM743.9 197h16.3v18.4h-16.3zM778.3 210.9h7.3v39.6h-7.3zM1165.4 293.9h-68.1V166.2l68.1 38.9z"></path>
    <path d="M1089.589 158.3l86.386 49.361-1.985 3.473-86.386-49.362z"></path>
    <path fill="#FFFFFF" d="M1089.593 153.8l86.386 49.363-1.984 3.473-86.386-49.362z"></path>
    <path fill="#83D6C1" d="M1089.598 149.302l86.386 49.362-1.985 3.473-86.386-49.362z"></path>
    <path fill="#0D1D48" d="M1138.1 259h16.3v34.9h-16.3z"></path>
    <path fill="#FFA259" d="M1108.2 258.5h16.3v18.4h-16.3zM1108.2 227.7h16.3v18.4h-16.3zM1108.2 197h16.3v18.4h-16.3zM1142.6 210.9h7.3v39.6h-7.3z"></path>
    <path fill="#48C5CE" d="M860.8 204.8v76.3c0 .8-.7 1.5-1.5 1.5h-1c-.8 0-1.5-.7-1.5-1.5v-76.3"></path>
    <path fill="#FFF" d="M861.3 287.1h-5c-1.1 0-2-.9-2-2v-3.3c0-1.1.9-2 2-2h5c1.1 0 2 .9 2 2v3.3c0 1.1-.9 2-2 2z"></path>
    <path fill="#0D1D48" d="M848.9 293.8c0-5.5 4.5-9.9 9.9-9.9s9.9 4.5 9.9 9.9h-19.8z"></path>
    <path fill="none" d="M866.4 183v4.6l-2 17.6h-11.2l-2-17.6V183"></path>
    <path fill="#FFF" d="M851.4 187.6h14.9l-5.3-5.3h-3.9z"></path>
    <path fill="#FFF" d="M860.2 183.8h-2.9c-1.1 0-2-.9-2-2v-.2c0-1.1.9-2 2-2h2.9c1.1 0 2 .9 2 2v.2c0 1.1-.9 2-2 2z"></path>
    <circle fill="#ffffff" cx="858.8" cy="196.4" r="3.2"></circle>
    <path fill="#83D6C1" d="M860.8 178.7c0 1.1-.9 2-2 2s-2-.9-2-2 .9-4.9 2-4.9 2 3.8 2 4.9z"></path>
    <path fill="#FFF" d="M829.8 196.4h16M871.4 196.4h16M870 189.3l6.9-4M847.3 189.2l-6.9-3.9M849.5 202.1l-9 5.3M867.9 202.3l9 5.3"></path>
    <path fill="none" d="M10.9 294.3h1185.2"></path>
  </g>
</svg>